<svg xmlns="http://www.w3.org/2000/svg" x="0px" y="0px" viewBox="0 0 864 864" enable-background="new 0 0 864 864"><style>.ls0{fill:#fbfff6}.fs0{fill:#fcfeff}</style><g transform="matrix(.7396 0 0 .7396 112.4955505618 113.6085505618)"><path class="ls0" d="M291.2,566.5V457.9h53.8v-47h-53.8v-12v-15.7V278.4h79V364l47-20.8v-64.8v-47c-7.3,0-165.8,0-173,0v47v288.1	c0,16.7,3.8,33,11,47.7l43-19C293.7,586.5,291.2,576.7,291.2,566.5z"/><path class="ls0" d="M567.8,278.4v39.8l-49.2-39.8l-29.8-24l-28.4-23h-18.6v47v264.3v30.2V618v83.5v61.4l47-39.4V662v-23.3v-45.1	v-30.2V307.3l79,63.8v195.4c0,10.1-2.4,20-7,28.7l43,19c7.1-14.7,11-31,11-47.7V409.1v-53v-77.7v-47h-47V278.4z"/></g><g><path class="fs0" d="M603.1,262L432,3.9L260.9,262L2.8,433.1l258.1,171.1L432,862.3l171.1-258.1l258.1-171.1L603.1,262z M56.2,433.1	l162.9-107.9l-71.6,107.9L219.1,541L56.2,433.1z M432,808.9L182.9,433.1L432,57.3l249.1,375.8L432,808.9z M716.5,433.1l-71.6-107.9	l162.9,107.9L644.9,541L716.5,433.1z"/></g></svg>